<!--?xml version="1.0" encoding="utf-8"?-->
<!-- Generator: Adobe Illustrator 23.0.3, SVG Export Plug-In . SVG Version: 6.00 Build 0)  -->
<svg version="1.1" id="Layer_1" xmlns="http://www.w3.org/2000/svg" xmlns:xlink="http://www.w3.org/1999/xlink" x="0px" y="0px" viewBox="0 0 644.9 741.4" style="" xml:space="preserve">
<style type="text/css">
	.st0{fill:none;stroke:#346D7B;stroke-width:4;stroke-miterlimit:10;}
</style>
<path class="st0 XaPmEgyd_0" d="M114,366.1c0.2,3.5,0.7,6.6,1.4,9.6c0.6,2.6,0.3,5.2-0.6,7.7c-0.5,1.2-1.9,0.9-2.5,0.5
	c-1.5-1.2-2.9-2.3-3.7-4.3c-2-5.7-3.3-11.5-4.5-17.4c-1-5.2-2.2-10.5-2.6-15.8c-0.2-3.6-1.5-7.2-2.2-10.8c-0.4-2-0.6-4-0.7-5.9
	c-0.3-4.9-1.3-9.8-1.9-14.7c-0.6-5.3-1.3-10.6-2-15.9c-0.4-3.1-0.8-6.4-1.1-9.6c-0.5-6.6-1.1-13.2-1.7-19.8
	c-0.5-5.6-0.4-11.1-0.5-16.6c-0.1-4-1.4-7.9-0.9-12c0.9-8.1,0.6-16.3,1-24.5c0.3-6.2,1-12.3,1.6-18.5c0.6-5.8,1.5-11.7,2.3-17.5
	c1-7.1,2.4-14.2,3.9-21.3c1.3-5.8,3.1-11.4,4.5-17.1c2.3-9.8,5.9-19.3,9-28.9c1.4-4.5,3.5-8.8,5.4-13.1c3.5-8,6.8-16,11.1-23.7
	c5-9.1,9.9-18.2,15.9-26.7c3.2-4.6,6.2-9.4,9.4-13.9c2.1-3,4.6-5.7,6.8-8.6c3.1-4.2,7.1-7.6,10.6-11.4c2-2.2,4.4-2.1,6.7-1.2
	c4,1.5,7.3,4.3,10.7,6.8c5.9,4.2,11.1,9.3,16.8,13.7c0.2,0.2,0.4,0.4,0.6,0.5c3.9,4.4,8.6,8,13,12c3.8,3.4,7.2,7.3,11.2,10.5
	c3.9,3.1,7,7,10.8,10c4.3,3.4,7.7,7.8,12,11.2c4.5,3.5,8,8,12.3,11.5c4.3,3.5,7.8,7.9,12.1,11.4c5.8,4.6,10.5,10.5,16.1,15.3
	c6.3,5.4,11.6,11.7,17.3,17.6c5.4,5.6,10,11.9,14.4,18.4c2,3.1,3.3,6.4,4.4,9.8c0.8,2.2,0.3,4.5-1.5,6.3c-2,1.9-3.5,4.2-6.8,4.6
	c-3.6,0.4-6.9,2.2-10.6,2c-3.3-0.1-6.1-1.1-8.4-3.6c-2.6-2.9-2.9-6.2-1.9-9.7c0.5-1.6,0.3-2.7-0.7-4c-2.7-3.5-5.7-6.5-9.2-9.2
	c-1.6-1.2-3-1.7-4.4-0.2c-0.8,0.9-2,0.9-2.9,1.1c-6,1.4-10.2,5.7-15,8.9c-6,3.9-10.9,9.1-16.9,13.1c-2.7,1.8-4.8,4.4-7.3,6.4
	c-5,4.2-9.8,8.8-14.8,12.9c-6,5-12,10.1-17.2,15.9c-5,5.7-10.3,11.1-15.1,17.1c-6.6,8.1-12.5,16.6-18.4,25.2
	c-3.3,4.8-6.3,9.9-9.4,14.9c-5.2,8.3-9.4,17.1-14.4,25.5c-2.7,4.5-4.9,9.4-7,14.2c-2.1,4.6-4.2,9.2-6.3,13.8
	c-3.2,6.8-5.7,13.6-7.1,21.1c-1.4,7.3-2.7,14.9-6.8,21.5c-1.6,2.6-3.7,4.6-6.1,6.5c-3.4,2.8-5,1.5-7-1.1
	C115,366.4,114.7,366.4,114,366.1z M129,300.1c0,1.9,0,3.7,0,5.6c0,0.9,0.3,1.6,1.1,1.9c0.7,0.3,1-0.6,1.4-1
	c1.3-1.1,2.3-2.6,3.2-4.1c1-1.9,2-3.8,3.4-5.5c4.4-5.6,7.3-12.1,10-18.6c1.7-4.1,3.1-8.4,5.2-12.3c3.2-5.9,6.5-11.8,10.2-17.5
	c3.6-5.7,7.5-11.2,11.4-16.6c3.9-5.6,8.2-11,12.2-16.5c4.2-5.8,8.6-11.4,13.7-16.4c13.3-13.3,26.2-27,40.2-39.7
	c8.9-8.1,17.2-16.9,25.6-25.5c2-2.1,3.8-4.5,5-7.2c0.9-2.2,0.2-3.6-1.8-4.9c-1-0.6-2.2-0.3-3.1-1.3c-4.2-4.6-9.3-8.3-13.7-12.8
	c-2.8-2.8-5.8-5.4-8.7-8c-5.4-4.8-11-9.4-16.4-14.2c-2.2-1.9-4.3-3.9-6.6-5.6c-5.7-4.3-10.9-9.2-16.5-13.6
	c-3.2-2.6-6.3-5.1-10.1-6.8c-2.7-1.2-7.9,0-8.6,2.5c-0.8,2.7-2.3,5-3.4,7.5c-4,8.8-7.6,17.8-11.1,26.9c-3.1,8.2-6.2,16.3-8.7,24.7
	c-1.5,5-3,10-4.6,14.9c-1.2,3.7-2.2,7.4-3,11.1c-1.1,4.7-2.2,9.3-3.5,14c-1.4,5.4-2.4,10.9-3.7,16.3c-0.7,3-1.2,6.1-1.8,9.1
	c-0.7,3.8-1.5,7.6-2.1,11.4c-0.6,3.5-1.4,6.9-1.8,10.5c-0.5,4.4-1.7,8.8-2.1,13.2c-0.2,2.3-0.6,4.7-1,6.9c-0.9,4.4-1.2,8.9-2,13.3
	c-0.5,2.8-0.8,5.8-1.1,8.8c-0.2,2.1-0.2,4.4-0.7,6.4c-1.2,4.1-1.5,8.3-2.1,12.4c-0.6,4.2-1.3,8.4-1.9,12.6
	C130.3,287.9,129.1,293.9,129,300.1z M127.5,247.2c1.2-0.3,1.6-0.9,1.7-1.9c0.3-4.2,1.2-8.4,1.4-12.6c0.4-7.2,1.3-14.4,1.6-21.7
	c0.1-3.2,0.9-6.2,1.1-9.3c0.1-1.6,0.1-3.5,0.7-5.1c1.4-4.2,2-8.5,2.9-12.8c0.8-4.1,1.6-8.3,2.7-12.3c2.3-8.2,4.2-16.6,6.8-24.7
	c1.8-5.4,3.3-10.8,4.7-16.3c1-3.6,2.4-7.1,3.3-10.8c1-4.2,2.7-8.2,3.2-12.7c0.4-3.2,0-6.6,1.3-9.7c0.2-0.4,0.2-1.1-0.8-1.2
	c-1.1,3-2.4,6-3.4,9c-2.1,6.2-4.1,12.5-6.1,18.8c-1.4,4.4-2.8,8.8-4.1,13.3c-1.6,5.5-3.1,11-4.5,16.6c-1.2,4.5-2.3,9-3.4,13.5
	c-0.9,3.5-1.5,7-2.6,10.5c-1.5,4.9-2.7,9.9-3.6,15c-0.8,4.6-2,9.1-2.6,13.7c-0.8,5.5-2.3,11.1-2.1,16.7c0.2,6,0.6,12.1,0.8,18.1
	C126.8,243,127.1,245.2,127.5,247.2z M113.8,366c0.1-0.1,0.2-0.2,0.4-0.3c-0.1-0.1-0.2-0.3-0.4-0.3c-0.1,0-0.3,0.1-0.4,0.2
	C113.6,365.8,113.7,365.9,113.8,366z"></path>
<path class="st0 XaPmEgyd_1" d="M431.4,339.8c0.3,4.6-0.9,9.6-4.1,13.9c-2.2,3-5.6,5-8.4,7.4c-4.5,3.9-9.9,6.6-14.3,10.7c-2.6,2.5-6,3.8-9.4,5
	c-5.9,2.2-11.4,5.3-16.8,8.7c-3.5,2.2-7.2,3.8-11.2,4.7c-4.8,1.1-9.4,2.7-13.9,4.5c-6.4,2.6-12.7,5.2-19.3,7.4
	c-5.9,1.9-11.7,4-17.3,6.6c-5.8,2.6-11.9,4-17.8,6c-4.9,1.7-9.9,3.5-14.9,5.1c-6.7,2.1-13.4,4.4-20.2,6.1c-4.3,1.1-8.4,2.9-12.7,4.2
	c-5.9,1.8-11.9,3.2-17.7,5.2c-4.8,1.6-9.7,2.6-14.5,4.3c-1.9,0.7-3.3,2.3-4.7,3.6c-0.8,0.8-1.8,1.1-2.1,0.4c-0.7-2-1.9-1.1-2.5-0.4
	c-1.5,1.5-3.2,0.3-4.8,0.6c-4.4,0.9-8.6,2.5-12.9,3.5c-5.3,1.2-10.6,2.8-15.8,4.6c-4.9,1.7-10.1,2-14.9,4c-1.1,0.4-3.2-0.2-2.3,2.5
	c0.4,1.1-2.1,0.1-2.1,1.3c0,2.3-1.6,1.6-2.8,1.7c-0.1,0-0.2,0-0.3,0c-3.5-3.1-9-3.5-11.1-8.5c-1-2.3-2.9-4.5-3.6-6.8
	c-0.9-2.8-1-6.1,0.1-9.1c2.3-6.4,4.1-12.9,5.9-19.4c1.1-4,2.7-7.9,4.2-11.9c4.4-11.7,9.7-23.1,15.5-34.1c3-5.7,6.1-11.4,9.7-16.8
	c4.9-7.4,9.3-15.2,14.8-22.2c3.9-5.1,7.2-10.8,11.3-15.8c3.5-4.3,6.8-8.8,10.4-13c4.6-5.2,8.8-10.8,13.2-16.2
	c0.3-0.4,0.7-0.8,1.1-1.1c7-6.8,13.2-14.4,19.8-21.6c9.4-10.3,19.3-20.2,29.4-29.7c6.5-6.1,13.5-11.6,20.1-17.7
	c2.3-2.1,4.7-4.2,7-6.4c5.4-5.2,11.2-9.9,17.3-14.3c4-2.9,8-5.8,12.8-7.1c8.5-2.3,16.7-2.1,23.5,4.7c6,5.9,11,12.5,15,20
	c3.6,6.7,8.3,12.9,12.4,19.3c3.6,5.7,7.3,11.3,10.8,17.1c4.2,6.9,8.4,13.9,12.3,21c4.8,8.8,9.6,17.6,13.8,26.7
	c3.5,7.7,6.9,15.5,9,23.8C429.8,327.6,431.4,333.1,431.4,339.8z M397,336.8c0.4-3.7-1-8.1-1.9-12.6c-0.8-4.2-1.9-8.5-2.8-12.7
	c-1.1-5.3-2.6-10.3-4.9-15.1c-4.2-9-9.6-17.4-15.3-25.5c-4.7-6.7-9.6-13.1-14.7-19.5c-1.7-2.1-3.7-3.8-5.2-5.9
	c-4-6-9.1-9.6-16.6-9.3c-2.2,0.1-4.3,0.8-6.4,0.9c-2.2,0.1-4.3,0.6-6.2,1.6c-5.8,2.9-10.7,7.1-16,10.6c-7.8,5.1-14.8,11.1-22.1,16.9
	c-6.8,5.4-13.2,11.2-19.5,17.1c-9.6,9-18.5,18.7-27.6,28.2c-0.2,0.2-0.4,0.4-0.6,0.6c-4.7,6.3-10.3,11.8-15,18.1
	c-2.5,3.2-5.2,6.3-7.7,9.6c-5.6,7.2-10.8,14.6-15.9,22.1c-6.2,9.1-12.4,18.3-18.1,27.8c-5.5,9.1-10.5,18.5-15.4,27.9
	c-4.4,8.5-9,16.9-12,26.1c-0.5,1.6-0.7,3.2,0.1,4.6c0.9,1.6,2.7,0.8,4.2,0.9c0.4,0,0.8-0.3,1.2-0.4c5.5-1.7,10.9-3.6,16.5-4.9
	c5.8-1.4,11.4-3.1,17.1-4.7c5.4-1.5,10.7-3.2,16-4.7c8.5-2.3,16.7-5.1,25.1-7.7c9.2-2.8,18.2-6,27.4-9c6.3-2,12.5-4.4,18.7-6.6
	c5.4-1.9,10.8-4,16.1-6c5.4-2,10.8-4.1,16.1-6.2c6.9-2.8,13.7-5.6,20.6-8.5c7.8-3.2,15.4-6.8,23.2-10.2c4.7-2.1,9.1-4.5,13.6-7.1
	c7-4,13.8-8.3,19.6-14.1C394.1,352.7,396.9,345.9,397,336.8z"></path>
<path class="st0 XaPmEgyd_2" d="M425.9,528.8c-4.5,0-9,0-13.6,0c-5,0-9.7,1-14.3,3.2c-6.4,3.1-13.4,5.1-19.5,8.6c-6.4,3.6-13.3,6.4-18.8,11.4
	c-1.4,1.2-3.4,1.7-5,2.7c-3.7,2.3-7.6,4.4-11.3,6.9c-3,2-6.7,3.3-9.8,5.2c-7,4.3-14.4,7.9-20.8,13.2c-2,1.7-4.6,2.7-7,3.8
	c-3.4,1.5-6,4-8.5,6.7c-1.7,1.8-4.3,3-6.9,3.7c-3.4,0.9-6.6,2.4-9.6,4.4c-2.3,1.5-5,2.6-8,2.8c-2.7,0.2-4.1-1.2-5.1-3.3
	c-0.9-1.9-1.8-3.9-1.6-6.2c0.1-0.9,0-1.7-0.5-2.5c-0.5-0.9-0.5-1.9,0.2-3c2.8-4.4,5.2-9,8.1-13.2c3.8-5.5,7.4-11.3,11.1-16.9
	c1.2-1.9,2.4-3.8,3.9-5.5c1.1-1.2-0.1-2.4,0.4-3.6c0.7-1.7,1.9-3.1,3.1-4.1c7.7-7,12.1-16.4,18.1-24.6c4-5.5,7.7-11.1,11.7-16.6
	c3.3-4.6,6.3-9.5,9.6-14.1c4.8-6.5,9-13.6,14.1-19.9c2.5-3.1,4.5-6.6,6.7-9.8c2.9-4.3,6.1-8.4,8.8-12.8c4.7-7.6,10.7-14.5,14.3-22.8
	c0.2-0.4,0.6-0.8,0.6-1.2c0-1,0.5-2.3-0.4-3c-0.9-0.7-1.8,0.1-2.7,0.5c-4.4,2.2-8.8,4.4-13.2,6.5c-6.8,3.1-13.8,5.8-20.7,8.6
	c-7.4,2.9-14.9,5.3-22.2,8.2c-5.9,2.3-12.1,3.9-18.1,5.9c-5.6,1.9-11.2,3.8-16.9,5.2c-6,1.5-11.9,3.4-17.8,5
	c-8.3,2.2-16.5,4.7-24.7,7c-8,2.2-16.1,4.1-24.1,6.4c-2.7,0.8-5.5,1.9-8.2,2c-2.2,0.1-4,1.2-6.1,1.1c-1,0-2.2,0.1-2.3-1.1
	c-0.1-0.7,0.3-1.9,1.6-2.1c3.2-0.5,2.6-1.8,1.5-4.3c-1.3-3-2-6.3-3.3-9.5c-1-2.5,1-4.6,4.3-5c4.7-0.5,9.4-1,13.9-1.7
	c4.8-0.8,9.6-1.7,14.4-2.8c7.5-1.7,14.8-3.9,22.2-5.8c7.7-2,15.2-5,22.8-7.2c5.7-1.7,11.3-3.5,16.9-5.5c9.8-3.5,19.6-7,29.3-10.5
	c9.4-3.5,18.9-6.9,28.2-10.7c9.5-3.9,18.8-8.2,27.6-13.7c4.5-2.8,9.5-5.1,13.8-8.2c4.2-3,8.8-5.6,12.7-9c3.3-2.9,7-5.3,10-8.4
	c1.2-1.2,3.1-0.9,4.3-0.4c2.1,0.9,4.5,1.5,5.9,3.8c1,1.6,2.6,2.8,4.7,3c2.1,0.2,2.9,2.1,3.9,3.5c0.9,1.3-1.2,1.9-1.6,2.1
	c-4.1,2.2-5.3,6.5-7.6,10.1c-5.4,8.3-10.4,16.9-16,25.1c-3.2,4.7-5.9,9.8-9.3,14.3c-3.4,4.5-6.1,9.4-9.3,14c-1.6,2.3-2.7,5-4.4,7.4
	c-3.1,4.2-5.9,8.5-8.9,12.7c-5.7,8.1-11.2,16.4-16.9,24.5c-4.4,6.2-8.5,12.6-13,18.8c-4.1,5.7-8.3,11.4-12.1,17.4
	c-1.1,1.8-2.7,3.4-3.8,5.3c-2.6,4.5-5.2,9.1-8,13.5c-0.9,1.5-2.7,2.4-2.4,4.7c0.3,2.1,1.1,3,3.1,1.9c4.9-2.6,10.1-4.9,15-7.4
	c5.1-2.6,9.9-5.6,15-8.1c9.9-4.8,19.6-10.1,28.8-16.2c5-3.3,10.6-6,17.2-5.1c2.7,0.4,5.5-0.1,8.2,0.1c7.1,0.5,14.1,1.2,21.1,1.7
	c4.7,0.4,9.6,1,13.6,4.4c2.1,1.8,3.9,3.8,5.9,5.6c0.7,0.6,0.6,1.2-0.4,1.5c-1.8,0.6-3.5,1.5-5.5,1.5
	C436.9,528.8,431.4,528.8,425.9,528.8z"></path>
<path class="st0 XaPmEgyd_3" d="M138.2,480.2c4.4,0.2,8.8,0.8,12.7,3c2.5,1.4,4.3,3.4,4,6.5c-0.5,5.5,1.9,10.1,4.3,14.8
	c3.9,7.7,8.8,14.8,13.4,22.1c4.7,7.5,10.1,14.5,15,21.8c4,6,8.9,11.3,13,17.2c3.9,5.4,8.3,10.4,12.1,15.9c2.8,4.1,4.5,4.1,8.4,0.7
	c7.6-6.7,12.8-15.3,18.3-23.6c6.1-9.2,11.5-18.9,17-28.5c3.7-6.5,7.3-13.2,10.8-19.8c4.8-9.1,9.5-18.2,13.9-27.5
	c1.1-2.4,2.4-4.7,3.1-7.3c0.6-2.4,4.8-4.3,7.2-3.3c1,0.4,1.9,0.2,2.9,0.2c4.7,0.2,9.2,1.3,13.8,2.2c0.6,0.1,1.2,0.1,1.8,0.2
	c3,0.2,5.5,3.1,4.8,6.1c-1,4.3-2.2,8.4-4,12.5c-4.9,10.5-11.1,20.3-17.5,29.8c-4.2,6.2-8.6,12.4-13.2,18.3c-5.7,7.2-11,14.7-16.6,22
	c-2.8,3.7-6,7.1-9,10.6c-4.5,5.2-8.8,10.6-13.4,15.7c-3.4,3.7-6.8,7.6-11.3,10.2c-1.9,1.1-2.1,4.5-1,7.1c1.9,4.2,4.7,7.9,7.6,11.4
	c7.2,9,15.4,17.1,23.6,25.3c4.2,4.1,9.1,7.3,13.6,11c4.3,3.5,9,6.5,13.5,9.7c8.2,5.8,16.5,11.4,25.1,16.6c5.2,3.2,10.4,6.2,16,8.7
	c5.8,2.5,11.8,4.1,17.9,5.5c5.9,1.4,11.9,1.7,17.8,3c0.2,0,0.4,0,0.5,0c9.4,0,18.8,1.7,28.2,0.7c6.5-0.7,13.1-0.4,19.5-1.6
	c4.1-0.7,8.3-0.6,12.3-2.9c4.9-2.9,8.6-6.6,12-11c2.7-3.6,4.7-8,8.9-10.3c0.5-0.3,0.9-0.7,1.6-0.8c3-0.9,6.1-1.1,9.2-1.7
	c5.4-0.9,10.7-0.6,16-0.5c5.3,0.1,10.7,0.9,15.9,2.1c1.6,0.4,3.2,0,4.5,1.6c1.5,1.8,1.6,3,0,4.8c-3.7,4.2-8.8,6.3-13.6,8.5
	c-8.7,4-17.7,7.2-26.7,10.4c-5.5,2-11,3.9-16.6,5.6c-5.7,1.7-11.3,3.4-17.1,4.7c-4.5,1-9.1,1.9-13.6,2.8c-2.5,0.5-5.1,0.8-7.7,1.1
	c-11,1.2-22,0.7-33.1,0.6c-4.7-0.1-9.4-1-14.1-2c-3-0.7-6.1-1-9.1-1.7c-6-1.5-11.9-3.3-17.7-5.4c-8.1-2.9-16.1-6.3-23.7-10.4
	c-8.3-4.5-16.2-9.5-23.8-15.2c-6.4-4.8-12.7-9.7-18.8-14.8c-4.9-4.1-9.7-8.5-14.8-12.5c-6.1-4.7-11.4-10.3-16.5-16
	c-4.6-5.1-9-10.6-13.3-16c-3.9-4.9-7.5-10-11.4-14.9c-3.4-4.3-6.1-9.1-9.6-13.2c-4.7-5.6-8.3-11.9-12.7-17.7
	c-4.1-5.4-7.6-11.1-11.3-16.8c-3.9-5.9-7.6-11.9-11.6-17.7c-3.8-5.5-7.1-11.4-10.9-17c-5.2-7.6-9.6-15.8-14.6-23.6
	c-2.5-3.9-2.5-8.4-0.8-12.8c1.2-3.1,2.4-3.9,6.2-4.1C136.4,480.2,137.3,480.2,138.2,480.2z"></path>
<path class="st0 XaPmEgyd_4" d="M456.5,521.7c-1.8,0.1-3.5,0.1-5.1-0.9c-0.9-0.6-1.1-1.5-1-2.5c0.1-1,0.7-1.8,1.6-1.8c3.7,0.2,6.3-2.6,9.4-3.8
	c3-1.1,5.8-1.1,8.9-0.5c2.9,0.5,5.7,1.3,8.6,1.7c4.7,0.7,9.2,2.2,13.8,3.3c5.5,1.4,10.9,3,16.3,4.7c6.9,2.1,13.8,4.3,20.6,6.5
	c7,2.3,14.1,4.3,21,6.9c8.5,3.2,17.3,5.6,25.8,9c7,2.8,14.3,5,21.4,7.5c4.6,1.6,9.2,3.3,13.8,5c5.1,1.9,10,3.9,14.7,6.6
	c0.7,0.4,1.3,0.8,1.9,1.3c1.7,1.3,2,2.4,0.1,3.8c-1.4,1.1-1.5,3.1-2.8,4.4c-3.6,3.6-7.9,6.2-12.1,9c-5.1,3.3-10.3,6.6-15.6,9.7
	c-6.4,3.7-12.8,7.5-19.6,10.7c-3.3,1.6-6.4,3.9-9.3,6.3c-2.6,2.1-6.3,3.2-9.1,5.3c-2.4,1.7-5.2,1.6-7.8,2.3c-0.5,0.1-1.2,0-1.5,0.4
	c-3,3.6-8,3.6-11.6,6.4c-1.6,1.2-4.2,1.3-6.4,1.7c-3,0.5-5.7,1.7-8.3,2.8c-8,3.4-16.4,5.7-24.5,8.8c-6,2.3-12.1,4.7-18.6,6.1
	c-6.6,1.4-13,3.7-19.6,5.3c-4.3,1.1-8.6,1.6-12.9,2.5c-2.5,0.5-4.8,1.3-7.3,1.8c-3,0.7-6,0.5-9,1.3c-3.8,1-7.8,1.5-11.6,2.3
	c-2,0.4-4,0.4-5.9,0.7c-3.7,0.6-7.3,1.3-11,1.8c-3.3,0.5-6.6,1.4-9.8,2.1c-2,0.4-4.1,0.5-6.2,0.8c-4.6,0.6-9.3,1.3-13.9,1.9
	c-5.8,0.7-11.7,0.9-17.5,2.1c-3,0.6-6.2,0.1-9.3,0.1c-4.9,0-9.8,0-14.6,0c-5,0.1-9.7-1.2-14.6-2.2c-6.4-1.4-12.6-3.5-18.5-6.3
	c-3.8-1.8-6.8-4.8-10.1-7.3c-5.9-4.4-11.8-8.9-17.3-13.9c-1.9-1.7-3.9-3.3-5.7-5c-0.4-0.4-1.1-0.8-0.9-1.5c0.3-0.9,1.2-0.6,1.8-0.5
	c2.6,0.3,4.9,1.5,7.2,2.6c6,2.9,11.9,6.3,18,9c6,2.6,11.8,5.9,18.3,7.1c3.7,0.7,7.5,1.2,11.3,1.8c8.8,1.6,17.6,1.7,26.5,1.4
	c5-0.2,9.9-1.3,14.9-2c4.7-0.7,9.3-1.8,13.9-2.7c4.3-0.8,8.6-1.7,12.8-2.8c3.9-1,7.9-1.6,11.9-2.6c4.9-1.3,9.8-2.5,14.7-3.8
	c4.3-1.1,8.7-2.1,12.9-3.4c2-0.6,4.3-1.4,5.8-2.9c2.2-2.3,5.4-3.5,7-6.6c0.7-1.4,2.9-2.2,3.8-3.4c2-2.6,4.5-4.7,6.5-7.2
	c2.7-3.6,5.4-7.2,7.9-10.9c2.4-3.6,4.8-7.2,6.9-10.9c4.3-7.8,9.2-15.2,13.2-23.2c1.8-3.7,4.2-7.2,5.8-10.9c2.4-5.4,5-10.8,6.4-16.6
	c0.5-1.9-1.7-5.2-4-6.6c-3.8-2.2-8-3.2-12-4.7c-4.8-1.9-9.7-3.6-14.4-5.7C460.5,522.2,458.7,521.5,456.5,521.7z M596,570.6
	c0.7-3.2-1.6-4.9-4-6.3c-7.5-4.3-16-5.8-24.2-7.9c-5.6-1.5-11.4-2.5-17-4.1c-6.2-1.8-12.5-2.8-18.7-4.6c-3.3-0.9-6.7-1.2-9.6-3.6
	c-1.6-1.4-3.5-3.1-6.4-2.2c-3.8,1.2-6.1,4.2-8,6.9c-4.9,7.3-9,15.1-13.5,22.6c-4.6,7.6-9.3,15.2-14,22.7
	c-3.7,5.9-7.5,11.8-11.3,17.7c-2.9,4.6-5.8,9.2-8.4,13.9c-0.7,1.3-2.6,2.7-1.5,4.6c1.2,2.1,2.8,0.1,4.2,0c3.2-0.1,6.4-0.9,9.4-1.9
	c11.3-3.8,22.6-7.6,33.7-12.1c9.2-3.7,18.6-7,27.9-10.8c8.5-3.5,16.8-7.2,25.1-11c10.6-5,21.4-9.9,31.2-16.4
	C593.3,576.7,596.6,574.8,596,570.6z"></path>
<path class="st0 XaPmEgyd_5" d="M224.8,661.8c-2.7,0.2-4.9-1.1-7.1-2.2c-2.9-1.4-6-2.7-9-4c-4.7-2.1-8.5-5.3-12.3-8.7
	c-5.6-4.9-10.9-10.1-16.6-14.9c-5.3-4.5-10.4-9.3-15.6-13.8c-7.3-6.3-13.1-14-19-21.5c-5.1-6.5-9.4-13.5-14.1-20.2
	c-4.8-6.9-9-14.1-13.5-21.2c-2.8-4.4-5.3-9.1-7.9-13.7c-5.6-9.9-10.7-20.2-16.2-30.1c-6.4-11.6-11.5-23.7-17.6-35.4
	c-3.3-6.2-5.8-12.9-8.5-19.4c-3.9-9.7-7.5-19.5-10.7-29.4c-1.4-4.3-2.9-8.6-2.4-13.2c0.3-2.6,1-5.1,0.9-7.8c-0.1-1.1,1-1.4,2.1-1.5
	c3.5-0.5,6.4,1.1,9.6,2c5.7,1.5,7.4,5.8,8.5,10.7c1.1,5,2.9,9.8,4.3,14.8c1.7,6.1,3.7,12.1,6,18c2,5.1,4,10.2,5.8,15.4
	c2.6,7.2,6.2,13.9,9.5,20.7c3.9,7.9,8,15.7,12.5,23.3c5.6,9.5,11,19.2,16.7,28.6c6.8,11.2,13.8,22.4,21.1,33.2
	c4.2,6.2,9,12.1,13.3,18.3c3.8,5.6,7.9,11,12,16.3c2.7,3.4,5.5,6.8,8.2,10.2c3.7,4.7,7.9,9,11.2,14c1.4,2.1,3.3,3.9,4.9,5.8
	c6.8,8,14.4,15.3,21.8,22.7C223.7,659.4,224.5,660.3,224.8,661.8z"></path>
<path class="st0 XaPmEgyd_6" d="M48.4,378.5c-5.3,0-9.2-3.2-10.6-7.9c-1.3-4.3-2.3-8.8-4.2-12.9c-1.6-3.6-4.3-6.7-6.6-9.9
	c-1.7-2.3-3.3-4.7-5.2-6.9c-1-1.2-1.5-2.5,0.7-3.5c1.6-0.7,3.2-1.8,4.6-2.9c3.6-3,5.9-3,9.9-0.3c2.3,1.6,4.2,3.7,6.3,5.5
	c5,4.4,9.6,9.3,13.3,14.9c2.7,4,4.1,8.5,5.1,13.1c0.8,3.5-3.5,8.4-8.1,9.8C51.8,378.2,49.9,379.2,48.4,378.5z"></path>
<path class="st0 XaPmEgyd_7" d="M129,300.1c0.1-6.2,1.2-12.2,2.2-18.3c0.6-4.2,1.3-8.4,1.9-12.6c0.6-4.1,0.9-8.4,2.1-12.4
	c0.6-2,0.5-4.3,0.7-6.4c0.3-2.9,0.6-6,1.1-8.8c0.8-4.4,1.1-8.9,2-13.3c0.5-2.2,0.8-4.6,1-6.9c0.5-4.4,1.7-8.8,2.1-13.2
	c0.4-3.5,1.2-7,1.8-10.5c0.6-3.8,1.4-7.6,2.1-11.4c0.6-3,1.1-6.1,1.8-9.1c1.3-5.4,2.3-10.9,3.7-16.3c1.2-4.6,2.4-9.3,3.5-14
	c0.9-3.7,1.8-7.5,3-11.1c1.6-4.9,3.1-9.9,4.6-14.9c2.6-8.3,5.6-16.5,8.7-24.7c3.5-9.1,7.1-18,11.1-26.9c1.1-2.5,2.6-4.8,3.4-7.5
	c0.7-2.4,5.9-3.7,8.6-2.5c3.8,1.7,6.9,4.3,10.1,6.8c5.6,4.5,10.7,9.4,16.5,13.6c2.3,1.7,4.5,3.7,6.6,5.6c5.4,4.8,11.1,9.4,16.4,14.2
	c2.9,2.6,5.9,5.2,8.7,8c4.4,4.4,9.5,8.1,13.7,12.8c0.9,1,2.1,0.6,3.1,1.3c2.1,1.3,2.8,2.8,1.8,4.9c-1.2,2.7-2.9,5.2-5,7.2
	c-8.4,8.6-16.7,17.4-25.6,25.5c-13.9,12.7-26.9,26.4-40.2,39.7c-5,5-9.4,10.7-13.7,16.4c-4,5.5-8.3,10.9-12.2,16.5
	c-3.9,5.5-7.8,11-11.4,16.6c-3.6,5.7-6.9,11.6-10.2,17.5c-2.1,3.9-3.5,8.2-5.2,12.3c-2.7,6.5-5.6,13-10,18.6
	c-1.3,1.7-2.4,3.6-3.4,5.5c-0.8,1.6-1.8,3-3.2,4.1c-0.4,0.4-0.7,1.3-1.4,1c-0.8-0.3-1.1-1-1.1-1.9C129,303.8,129,302,129,300.1z"></path>
<path class="st0 XaPmEgyd_8" d="M127.5,247.2c-0.4-2.1-0.7-4.2-0.8-6.1c-0.3-6-0.6-12.1-0.8-18.1c-0.2-5.6,1.3-11.1,2.1-16.7
	c0.7-4.6,1.8-9.1,2.6-13.7c0.9-5,2.1-10,3.6-15c1-3.4,1.7-7,2.6-10.5c1.1-4.5,2.2-9,3.4-13.5c1.5-5.5,2.9-11.1,4.5-16.6
	c1.3-4.5,2.7-8.9,4.1-13.3c2-6.3,4-12.5,6.1-18.8c1-3.1,2.3-6.1,3.4-9c1,0.1,1,0.9,0.8,1.2c-1.2,3.1-0.9,6.5-1.3,9.7
	c-0.5,4.5-2.2,8.5-3.2,12.7c-0.9,3.7-2.3,7.2-3.3,10.8c-1.5,5.5-3,10.9-4.7,16.3c-2.7,8.1-4.5,16.5-6.8,24.7
	c-1.1,4-1.9,8.2-2.7,12.3c-0.9,4.3-1.5,8.6-2.9,12.8c-0.5,1.6-0.6,3.5-0.7,5.1c-0.2,3.1-1,6.2-1.1,9.3c-0.3,7.2-1.2,14.4-1.6,21.7
	c-0.3,4.2-1.1,8.4-1.4,12.6C129.2,246.3,128.7,246.9,127.5,247.2z"></path>
<path class="st0 XaPmEgyd_9" d="M113.8,366c-0.1-0.1-0.3-0.2-0.4-0.3c0.1-0.1,0.3-0.2,0.4-0.2c0.1,0,0.2,0.2,0.4,0.3
	C114.1,365.8,114,365.9,113.8,366z"></path>
<path class="st0 XaPmEgyd_10" d="M397,336.8c0,9.1-2.8,15.9-8.6,21.8c-5.8,5.8-12.6,10.1-19.6,14.1c-4.4,2.6-8.9,5-13.6,7.1
	c-7.7,3.4-15.3,7-23.2,10.2c-6.9,2.8-13.7,5.7-20.6,8.5c-5.3,2.2-10.7,4.2-16.1,6.2c-5.4,2-10.7,4.2-16.1,6
	c-6.3,2.2-12.4,4.5-18.7,6.6c-9.1,3-18.2,6.2-27.4,9c-8.4,2.5-16.6,5.4-25.1,7.7c-5.4,1.4-10.7,3.1-16,4.7
	c-5.7,1.6-11.3,3.4-17.1,4.7c-5.6,1.3-11,3.3-16.5,4.9c-0.4,0.1-0.8,0.5-1.2,0.4c-1.4-0.1-3.2,0.7-4.2-0.9c-0.8-1.4-0.6-3-0.1-4.6
	c2.9-9.2,7.5-17.6,12-26.1c4.9-9.4,9.9-18.8,15.4-27.9c5.7-9.5,11.9-18.6,18.1-27.8c5.1-7.5,10.4-14.9,15.9-22.1
	c2.5-3.2,5.2-6.3,7.7-9.6c4.8-6.2,10.3-11.8,15-18.1c0.2-0.2,0.4-0.4,0.6-0.6c9.1-9.5,17.9-19.3,27.6-28.2
	c6.3-5.9,12.8-11.7,19.5-17.1c7.3-5.7,14.3-11.8,22.1-16.9c5.4-3.5,10.3-7.7,16-10.6c2-1,4.1-1.5,6.2-1.6c2.2-0.1,4.2-0.8,6.4-0.9
	c7.6-0.3,12.7,3.3,16.6,9.3c1.4,2.2,3.5,3.9,5.2,5.9c5.1,6.4,10.1,12.8,14.7,19.5c5.7,8.2,11.1,16.5,15.3,25.5
	c2.2,4.8,3.8,9.9,4.9,15.1c0.9,4.2,2,8.5,2.8,12.7C395.9,328.6,397.4,333.1,397,336.8z"></path>
<path class="st0 XaPmEgyd_11" d="M596,570.6c0.6,4.2-2.7,6.1-5.2,7.8c-9.8,6.5-20.6,11.4-31.2,16.4c-8.3,3.9-16.6,7.6-25.1,11
	c-9.2,3.8-18.6,7.1-27.9,10.8c-11.1,4.5-22.4,8.3-33.7,12.1c-3,1-6.1,1.8-9.4,1.9c-1.4,0-3,2-4.2,0c-1.2-1.9,0.7-3.3,1.5-4.6
	c2.6-4.8,5.5-9.3,8.4-13.9c3.7-5.9,7.6-11.8,11.3-17.7c4.7-7.5,9.4-15.1,14-22.7c4.5-7.5,8.6-15.3,13.5-22.6c1.9-2.8,4.2-5.7,8-6.9
	c2.9-0.9,4.8,0.8,6.4,2.2c2.9,2.4,6.3,2.7,9.6,3.6c6.2,1.7,12.5,2.8,18.7,4.6c5.6,1.6,11.4,2.6,17,4.1c8.2,2.1,16.7,3.7,24.2,7.9
	C594.4,565.6,596.7,567.3,596,570.6z"></path>
<style data-made-with="vivus-instant">.XaPmEgyd_0{stroke-dasharray:1905 1907;stroke-dashoffset:1906;animation:XaPmEgyd_draw_0 2300ms linear 0ms infinite,XaPmEgyd_fade 2300ms linear 0ms infinite;}.XaPmEgyd_1{stroke-dasharray:1549 1551;stroke-dashoffset:1550;animation:XaPmEgyd_draw_1 2300ms linear 0ms infinite,XaPmEgyd_fade 2300ms linear 0ms infinite;}.XaPmEgyd_2{stroke-dasharray:1233 1235;stroke-dashoffset:1234;animation:XaPmEgyd_draw_2 2300ms linear 0ms infinite,XaPmEgyd_fade 2300ms linear 0ms infinite;}.XaPmEgyd_3{stroke-dasharray:1259 1261;stroke-dashoffset:1260;animation:XaPmEgyd_draw_3 2300ms linear 0ms infinite,XaPmEgyd_fade 2300ms linear 0ms infinite;}.XaPmEgyd_4{stroke-dasharray:1273 1275;stroke-dashoffset:1274;animation:XaPmEgyd_draw_4 2300ms linear 0ms infinite,XaPmEgyd_fade 2300ms linear 0ms infinite;}.XaPmEgyd_5{stroke-dasharray:635 637;stroke-dashoffset:636;animation:XaPmEgyd_draw_5 2300ms linear 0ms infinite,XaPmEgyd_fade 2300ms linear 0ms infinite;}.XaPmEgyd_6{stroke-dasharray:131 133;stroke-dashoffset:132;animation:XaPmEgyd_draw_6 2300ms linear 0ms infinite,XaPmEgyd_fade 2300ms linear 0ms infinite;}.XaPmEgyd_7{stroke-dasharray:600 602;stroke-dashoffset:601;animation:XaPmEgyd_draw_7 2300ms linear 0ms infinite,XaPmEgyd_fade 2300ms linear 0ms infinite;}.XaPmEgyd_8{stroke-dasharray:313 315;stroke-dashoffset:314;animation:XaPmEgyd_draw_8 2300ms linear 0ms infinite,XaPmEgyd_fade 2300ms linear 0ms infinite;}.XaPmEgyd_9{stroke-dasharray:2 4;stroke-dashoffset:3;animation:XaPmEgyd_draw_9 2300ms linear 0ms infinite,XaPmEgyd_fade 2300ms linear 0ms infinite;}.XaPmEgyd_10{stroke-dasharray:691 693;stroke-dashoffset:692;animation:XaPmEgyd_draw_10 2300ms linear 0ms infinite,XaPmEgyd_fade 2300ms linear 0ms infinite;}.XaPmEgyd_11{stroke-dasharray:347 349;stroke-dashoffset:348;animation:XaPmEgyd_draw_11 2300ms linear 0ms infinite,XaPmEgyd_fade 2300ms linear 0ms infinite;}@keyframes XaPmEgyd_draw{100%{stroke-dashoffset:0;}}@keyframes XaPmEgyd_fade{0%{stroke-opacity:1;}86.95652173913044%{stroke-opacity:1;}100%{stroke-opacity:0;}}@keyframes XaPmEgyd_draw_0{17.391304347826086%{stroke-dashoffset: 1906}55.072463768115945%{ stroke-dashoffset: 0;}100%{ stroke-dashoffset: 0;}}@keyframes XaPmEgyd_draw_1{19.104084321475625%{stroke-dashoffset: 1550}56.78524374176548%{ stroke-dashoffset: 0;}100%{ stroke-dashoffset: 0;}}@keyframes XaPmEgyd_draw_2{20.81686429512516%{stroke-dashoffset: 1234}58.49802371541502%{ stroke-dashoffset: 0;}100%{ stroke-dashoffset: 0;}}@keyframes XaPmEgyd_draw_3{22.5296442687747%{stroke-dashoffset: 1260}60.21080368906456%{ stroke-dashoffset: 0;}100%{ stroke-dashoffset: 0;}}@keyframes XaPmEgyd_draw_4{24.24242424242424%{stroke-dashoffset: 1274}61.9235836627141%{ stroke-dashoffset: 0;}100%{ stroke-dashoffset: 0;}}@keyframes XaPmEgyd_draw_5{25.955204216073785%{stroke-dashoffset: 636}63.63636363636363%{ stroke-dashoffset: 0;}100%{ stroke-dashoffset: 0;}}@keyframes XaPmEgyd_draw_6{27.66798418972332%{stroke-dashoffset: 132}65.34914361001317%{ stroke-dashoffset: 0;}100%{ stroke-dashoffset: 0;}}@keyframes XaPmEgyd_draw_7{29.38076416337286%{stroke-dashoffset: 601}67.06192358366272%{ stroke-dashoffset: 0;}100%{ stroke-dashoffset: 0;}}@keyframes XaPmEgyd_draw_8{31.093544137022395%{stroke-dashoffset: 314}68.77470355731225%{ stroke-dashoffset: 0;}100%{ stroke-dashoffset: 0;}}@keyframes XaPmEgyd_draw_9{32.80632411067194%{stroke-dashoffset: 3}70.4874835309618%{ stroke-dashoffset: 0;}100%{ stroke-dashoffset: 0;}}@keyframes XaPmEgyd_draw_10{34.51910408432147%{stroke-dashoffset: 692}72.20026350461133%{ stroke-dashoffset: 0;}100%{ stroke-dashoffset: 0;}}@keyframes XaPmEgyd_draw_11{36.23188405797101%{stroke-dashoffset: 348}73.91304347826086%{ stroke-dashoffset: 0;}100%{ stroke-dashoffset: 0;}}</style></svg>
